HIERARCHY
ROOT Hips
{
 OFFSET 0.000000 0.000000 0.000000
 CHANNELS 6 Xposition Yposition Zposition Yrotation Xrotation Zrotation
 JOINT Chest
 {
  OFFSET 0.000000 9.585900 0.002600
  CHANNELS 3 Yrotation Xrotation Zrotation
  JOINT Chest2
  {
   OFFSET 0.000000 9.601200 -0.005300
   CHANNELS 3 Yrotation Xrotation Zrotation
   JOINT Chest3
   {
    OFFSET 0.000000 9.561800 0.000000
    CHANNELS 3 Yrotation Xrotation Zrotation
    JOINT Chest4
    {
     OFFSET 0.000000 9.552100 0.000000
     CHANNELS 3 Yrotation Xrotation Zrotation
     JOINT Neck
     {
      OFFSET 0.000000 14.453000 0.000000
      CHANNELS 3 Yrotation Xrotation Zrotation
      JOINT Head
      {
       OFFSET 0.000000 8.936500 -0.011300
       CHANNELS 3 Yrotation Xrotation Zrotation
       End Site
       {
        OFFSET 0.000000 17.073600 -0.006000
       }
      }
     }
     JOINT RightCollar
     {
      OFFSET -2.921100 9.558500 0.000000
      CHANNELS 3 Yrotation Xrotation Zrotation
      JOINT RightShoulder
      {
       OFFSET -13.519700 0.000000 0.000000
       CHANNELS 3 Yrotation Xrotation Zrotation
       JOINT RightElbow
       {
        OFFSET 0.000000 -29.696600 0.000000
        CHANNELS 3 Yrotation Xrotation Zrotation
        JOINT RightWrist
        {
         OFFSET 0.000000 -24.004700 0.000000
         CHANNELS 3 Yrotation Xrotation Zrotation
         End Site
         {
          OFFSET 0.000000 -17.728500 0.000000
         }
        }
       }
      }
     }
     JOINT LeftCollar
     {
      OFFSET 2.921100 9.558500 0.000000
      CHANNELS 3 Yrotation Xrotation Zrotation
      JOINT LeftShoulder
      {
       OFFSET 13.519700 0.000000 0.000000
       CHANNELS 3 Yrotation Xrotation Zrotation
       JOINT LeftElbow
       {
        OFFSET 0.000000 -29.696600 0.000000
        CHANNELS 3 Yrotation Xrotation Zrotation
        JOINT LeftWrist
        {
         OFFSET 0.000000 -24.004700 0.000000
         CHANNELS 3 Yrotation Xrotation Zrotation
         End Site
         {
          OFFSET 0.000000 -17.728500 0.000000
         }
        }
       }
      }
     }
    }
   }
  }
 }
 JOINT RightHip
 {
  OFFSET -7.771700 -0.012900 -0.001300
  CHANNELS 3 Yrotation Xrotation Zrotation
  JOINT RightKnee
  {
   OFFSET 0.000000 -40.869800 0.001200
   CHANNELS 3 Yrotation Xrotation Zrotation
   JOINT RightAnkle
   {
    OFFSET 0.000000 -39.717900 0.002100
    CHANNELS 3 Yrotation Xrotation Zrotation
    JOINT RightToe
    {
     OFFSET 0.000000 -4.965400 11.033500
     CHANNELS 3 Yrotation Xrotation Zrotation
     End Site
     {
      OFFSET 0.000000 -1.423100 5.872300
     }
    }
   }
  }
 }
 JOINT LeftHip
 {
  OFFSET 7.771700 -0.012900 -0.001300
  CHANNELS 3 Yrotation Xrotation Zrotation
  JOINT LeftKnee
  {
   OFFSET 0.000000 -40.869800 0.001200
   CHANNELS 3 Yrotation Xrotation Zrotation
   JOINT LeftAnkle
   {
    OFFSET 0.000000 -39.717900 0.002100
    CHANNELS 3 Yrotation Xrotation Zrotation
    JOINT LeftToe
    {
     OFFSET 0.000000 -4.965400 11.033500
     CHANNELS 3 Yrotation Xrotation Zrotation
     End Site
     {
      OFFSET 0.000000 -1.423100 5.872300
     }
    }
   }
  }
 }
}
MOTION
Frames: 16
Frame Time: 0.008333
-34.982292 50.124029 21.600805 164.685437 -25.774380 -0.499696 3.591276 14.525380 2.834556 0.289260 1.340419 0.119335 0.464657 2.211148 0.174582 2.934763 13.013368 1.400860 2.147931 16.664884 -0.056881 3.959724 -4.876320 -0.902741 5.541290 6.527835 0.488077 4.866206 -22.403559 -13.942641 41.835318 -48.179163 -28.022978 9.331923 12.949043 -22.392157 -9.440248 0.487750 -0.824464 -6.343224 -24.204274 11.813019 -60.170758 -41.545957 34.935934 -14.981559 17.792628 5.451779 -5.474343 -55.250063 0.236353 -115.529688 82.533721 -116.098384 -5.338775 -15.648326 0.801305 -0.199996 1.703673 -0.328948 -3.504693 -60.560040 20.505349 89.826473 77.126876 85.810634 -15.274592 -20.212160 2.056647 -0.852531 -1.620865 -0.354286
-34.972338 50.124586 21.641873 164.831064 -25.754217 -0.548257 3.449699 14.494292 2.807639 0.282712 1.328036 0.111388 0.459953 2.210048 0.175386 2.922587 13.019006 1.407394 2.164864 16.662162 -0.079728 3.977533 -4.861575 -0.897735 5.556878 6.518326 0.470586 4.881296 -22.390769 -13.954023 41.836780 -48.173855 -28.005334 9.309260 12.948570 -22.386804 -9.486446 0.440247 -0.833332 -6.560793 -24.288413 11.759801 -60.150054 -41.277791 34.965842 -15.299663 18.126808 4.864309 -5.555033 -55.256141 0.246049 -115.304976 82.526043 -115.858500 -5.404744 -15.777237 0.848746 -0.153043 1.723958 -0.304763 -3.858112 -60.531579 20.700982 89.617049 77.128921 85.454241 -15.302909 -20.247815 2.048344 -0.787619 -1.533399 -0.331465
-34.960830 50.131455 21.670886 164.848699 -25.808009 -0.544672 3.399092 14.487539 2.752673 0.280056 1.330196 0.112873 0.484353 2.256168 0.203893 2.895317 13.010886 1.402198 2.166380 16.645337 -0.133554 4.053423 -4.848697 -0.980838 5.541949 6.461231 0.437440 4.934272 -22.342783 -13.946969 41.818698 -48.156623 -27.974518 9.313132 12.946096 -22.374550 -9.519226 0.406140 -0.842026 -6.790946 -24.383035 11.721776 -60.108674 -41.015692 34.958043 -15.559448 18.410809 4.427144 -5.532532 -55.194863 0.239047 -115.193138 82.532652 -115.736968 -5.401918 -15.930901 0.896021 -0.171606 1.757599 -0.305111 -4.026571 -60.435180 20.836285 89.500763 77.132384 85.232516 -15.306494 -20.235780 2.045265 -0.812400 -1.529315 -0.337427
-34.953909 50.137800 21.700277 164.873500 -25.843479 -0.534182 3.362770 14.507874 2.719731 0.268950 1.312881 0.102121 0.476251 2.251127 0.200435 2.885427 13.026170 1.412016 2.188910 16.647298 -0.159102 4.111242 -4.845447 -1.055491 5.561038 6.450823 0.432998 4.969797 -22.350442 -13.968470 41.791732 -48.131501 -27.929736 9.324396 12.940324 -22.349535 -9.552801 0.371801 -0.853132 -7.013323 -24.477083 11.699294 -60.096925 -40.754402 34.944012 -15.766925 18.659034 4.128488 -5.506381 -55.154019 0.220845 -115.137411 82.562758 -115.681191 -5.424109 -16.072412 0.946969 -0.195414 1.780756 -0.304195 -4.135146 -60.366122 20.905171 89.332337 77.136772 84.987213 -15.334235 -20.218220 2.043118 -0.817663 -1.513198 -0.336095
-34.941549 50.145224 21.728778 164.799835 -25.886594 -0.528276 3.427629 14.531623 2.735628 0.266986 1.312424 0.102549 0.462597 2.235902 0.190584 2.864824 13.034775 1.415882 2.214227 16.646334 -0.185911 4.167501 -4.845667 -1.113925 5.601496 6.463301 0.438243 5.009909 -22.439590 -14.019549 41.703192 -48.069786 -27.803159 9.326698 12.943038 -22.324235 -9.585075 0.339277 -0.867839 -7.224799 -24.572896 11.690632 -60.143087 -40.485904 34.947301 -15.926333 18.873475 3.947114 -5.450279 -55.099713 0.299686 -115.106181 82.628277 -115.655446 -5.492435 -16.244173 1.004057 -0.231514 1.845828 -0.305770 -4.198868 -60.297635 21.026515 89.211647 77.146995 84.814111 -15.245210 -20.147315 2.046247 -0.936226 -1.567944 -0.378694
-34.926927 50.155844 21.750106 164.790761 -25.969970 -0.570783 3.426540 14.572796 2.760291 0.276735 1.333418 0.114274 0.467726 2.246146 0.196345 2.816733 13.018678 1.400886 2.250553 16.650937 -0.204050 4.220310 -4.859418 -1.182580 5.592860 6.398009 0.428016 5.087187 -22.441721 -14.035787 41.630763 -48.010594 -27.693814 9.365922 12.931847 -22.262929 -9.614226 0.311275 -0.886768 -7.421153 -24.671194 11.693344 -60.252430 -40.207524 34.975570 -16.037688 19.056906 3.869710 -5.441223 -54.999060 0.405334 -114.871573 82.623450 -115.410018 -5.593710 -16.346595 1.044441 -0.184736 1.836246 -0.267521 -4.295892 -60.201333 21.134324 89.145014 77.151862 84.725091 -15.191363 -20.148248 2.043643 -0.951718 -1.573156 -0.394158
-34.921075 50.165239 21.769701 164.851328 -26.038219 -0.609365 3.314354 14.559287 2.712622 0.307188 1.379348 0.140347 0.464882 2.249309 0.197041 2.823137 13.039831 1.412936 2.245882 16.629626 -0.238650 4.283242 -4.867485 -1.245085 5.568813 6.343888 0.419521 5.140858 -22.415009 -14.035366 41.601103 -47.985478 -27.646444 9.387975 12.931930 -22.235323 -9.671945 0.274682 -0.911995 -7.598380 -24.769214 11.704087 -60.417816 -39.924310 35.026058 -16.103179 19.208724 3.889121 -5.463821 -54.924504 0.441951 -114.702298 82.607576 -115.230407 -5.669408 -16.382892 1.066859 -0.138780 1.820679 -0.243528 -4.388006 -60.122774 21.165224 89.072996 77.157175 84.633647 -15.228186 -20.214002 2.048601 -0.898251 -1.510603 -0.385126
-34.923965 50.169804 21.794593 164.881695 -26.046089 -0.611388 3.266998 14.546405 2.684074 0.288965 1.360168 0.128903 0.442229 2.230817 0.184384 2.857593 13.084316 1.440343 2.230469 16.595348 -0.286928 4.356153 -4.869134 -1.299786 5.553112 6.304057 0.413402 5.192118 -22.471335 -14.062287 41.544840 -47.920075 -27.524081 9.395125 12.939878 -22.206209 -9.685331 0.265512 -0.925263 -7.795106 -24.885644 11.704252 -60.629441 -39.648475 35.096222 -16.133673 19.327349 3.991917 -5.460300 -54.919097 0.440499 -114.794882 82.659524 -115.335679 -5.703105 -16.470440 1.107362 -0.167271 1.767833 -0.229337 -4.425738 -60.106199 21.156985 88.880751 77.178737 84.425528 -15.229935 -20.188095 2.041974 -0.867847 -1.527268 -0.376363
-34.923961 50.176805 21.812206 164.896026 -26.093436 -0.630261 3.241362 14.570615 2.681884 0.252087 1.315499 0.100993 0.477137 2.277108 0.211915 2.759809 13.044619 1.398836 2.313703 16.612578 -0.301986 4.408667 -4.852863 -1.310587 5.621354 6.309347 0.434341 5.238195 -22.535398 -14.089154 41.521791 -47.844550 -27.414201 9.385728 12.952511 -22.174627 -9.683814 0.268930 -0.954260 -7.915311 -24.948416 11.726730 -60.881063 -39.384743 35.191434 -16.142375 19.416213 4.159483 -5.458456 -54.869547 0.487540 -114.767866 82.681853 -115.320978 -5.771893 -16.536524 1.144705 -0.152717 1.701165 -0.197980 -4.448728 -60.055693 21.158927 88.748301 77.195512 84.298776 -15.230232 -20.177025 2.039463 -0.877946 -1.526047 -0.377963
-34.923811 50.185451 21.823280 164.904729 -26.169316 -0.655397 3.202777 14.600140 2.670394 0.268941 1.339219 0.115150 0.420362 2.222759 0.171573 2.755295 13.074117 1.408011 2.364517 16.611058 -0.323501 4.487869 -4.885154 -1.396754 5.657684 6.298087 0.446261 5.277717 -22.580322 -14.103326 41.472313 -47.793072 -27.291795 9.415013 12.960377 -22.139662 -9.711088 0.253632 -0.988938 -8.022216 -24.992365 11.746228 -61.167330 -39.130278 35.317433 -16.139242 19.478464 4.373347 -5.467964 -54.787226 0.540813 -114.700598 82.692027 -115.266069 -5.810253 -16.593555 1.176229 -0.151165 1.657113 -0.180906 -4.378707 -59.991986 21.077627 88.609814 77.193885 84.217225 -15.203289 -20.183615 2.052193 -0.920275 -1.543386 -0.404562
-34.931614 50.191764 21.833723 164.911819 -26.220324 -0.650362 3.124354 14.573790 2.585271 0.264688 1.340420 0.114592 0.435471 2.246467 0.187583 2.743434 13.090283 1.409718 2.412071 16.611814 -0.333682 4.555058 -4.934553 -1.492452 5.677306 6.277541 0.452444 5.314214 -22.624746 -14.112753 41.427318 -47.743324 -27.169319 9.441561 12.967918 -22.098512 -9.729517 0.245059 -1.010406 -8.136931 -25.032325 11.745632 -61.483826 -38.883497 35.477362 -16.131549 19.517079 4.622695 -5.451981 -54.740608 0.531622 -114.754215 82.717669 -115.337764 -5.811270 -16.641495 1.206531 -0.179499 1.608507 -0.178737 -4.291835 -59.951341 20.977818 88.504810 77.193328 84.149301 -15.230667 -20.174796 2.059897 -0.918389 -1.562436 -0.405013
-34.939497 50.197213 21.842802 164.908051 -26.264276 -0.654389 3.076204 14.561858 2.531107 0.261550 1.340665 0.113788 0.442123 2.258032 0.195312 2.718426 13.093898 1.400844 2.489697 16.639794 -0.311553 4.591144 -4.994692 -1.582842 5.697879 6.258439 0.461600 5.350114 -22.665202 -14.119500 41.475196 -47.670185 -27.096871 9.376303 12.979261 -22.095663 -9.749574 0.243003 -1.025645 -8.241755 -25.054560 11.733506 -61.826049 -38.640721 35.673618 -16.119603 19.532617 4.902080 -5.436709 -54.693820 0.559794 -114.699892 82.724581 -115.304111 -5.839938 -16.714313 1.239957 -0.180231 1.590950 -0.165539 -4.215865 -59.917112 20.901079 88.416628 77.182886 84.099673 -15.247027 -20.174747 2.063586 -0.893526 -1.569737 -0.399828
-34.945198 50.203452 21.847801 164.907576 -26.322032 -0.681199 3.039155 14.573295 2.506807 0.259015 1.340222 0.112986 0.437817 2.257286 0.193844 2.693376 13.095203 1.390526 2.485951 16.588020 -0.375548 4.702216 -4.976641 -1.597431 5.718220 6.243079 0.473504 5.391744 -22.699324 -14.123215 41.466988 -47.616049 -27.000455 9.350699 12.988872 -22.085160 -9.771068 0.245312 -1.036680 -8.344783 -25.056037 11.715349 -62.185137 -38.399498 35.903620 -16.091008 19.526670 5.216307 -5.458390 -54.631578 0.627349 -114.648285 82.725550 -115.278613 -5.859801 -16.762395 1.273780 -0.186419 1.552085 -0.155145 -4.176003 -59.867619 20.859521 88.353087 77.164457 84.074462 -15.230856 -20.184672 2.065992 -0.886348 -1.565452 -0.401932
-34.947934 50.210204 21.849767 164.918886 -26.388244 -0.738962 2.998396 14.591314 2.507514 0.256570 1.339355 0.112032 0.459186 2.280782 0.216406 2.638866 13.070879 1.354113 2.505698 16.564671 -0.408739 4.787651 -4.978321 -1.631022 5.736148 6.232324 0.483047 5.439165 -22.725557 -14.119976 41.456974 -47.568296 -26.911888 9.347492 13.006062 -22.046574 -9.791456 0.249097 -1.043420 -8.460608 -25.032475 11.697963 -62.543199 -38.165594 36.161460 -16.032502 19.497739 5.582118 -5.519870 -54.552057 0.737350 -114.545840 82.720673 -115.199997 -5.881123 -16.801753 1.309250 -0.191052 1.508414 -0.146409 -4.190044 -59.807832 20.866465 88.284057 77.142927 84.052391 -15.221376 -20.201697 2.060215 -0.885222 -1.553924 -0.404087
-34.952239 50.215826 21.850942 164.911911 -26.441444 -0.789641 2.977038 14.595364 2.508835 0.254274 1.338317 0.110859 0.478580 2.304910 0.239187 2.588244 13.044872 1.315655 2.537329 16.557955 -0.424716 4.852019 -4.988866 -1.672007 5.750354 6.222957 0.489197 5.492280 -22.740661 -14.108505 41.442778 -47.527627 -26.831741 9.350239 13.022832 -22.007731 -9.810772 0.255508 -1.045057 -8.594768 -24.986919 11.687301 -62.879633 -37.946676 36.436094 -15.934759 19.440999 6.024842 -5.566575 -54.485270 0.845447 -114.450615 82.720058 -115.128549 -5.896458 -16.852847 1.345950 -0.205850 1.482472 -0.142650 -4.230654 -59.756389 20.917007 88.272090 77.137162 84.065408 -15.216245 -20.215771 2.063607 -0.841829 -1.554324 -0.399647
-34.957425 50.220555 21.851251 164.908439 -26.484201 -0.844640 2.956745 14.589106 2.511882 0.271060 1.361111 0.134858 0.416767 2.241639 0.175653 2.613543 13.079852 1.339031 2.565747 16.553160 -0.438962 4.909791 -4.996041 -1.708581 5.756294 6.210947 0.496010 5.558029 -22.741920 -14.093089 41.413824 -47.495407 -26.757328 9.362899 13.033048 -21.961979 -9.828228 0.263782 -1.043709 -8.740939 -24.924784 11.684886 -63.182455 -37.746438 36.716488 -15.785009 19.350151 6.570783 -5.593575 -54.431505 0.963117 -114.263781 82.688548 -114.950203 -5.974595 -16.891071 1.371140 -0.155920 1.471323 -0.110384 -4.283400 -59.715354 20.978274 88.277599 77.119248 84.099313 -15.264880 -20.234124 2.068304 -0.782074 -1.549601 -0.388722
